FILE "Dracula Rev 199202 (1992)(Sony)(US)[a2].img" BINARY
  TRACK 01 MODE1/2352
    INDEX 01 00:00:00
  TRACK 02 AUDIO
    PREGAP 00:02:00
    INDEX 01 26:01:70
  TRACK 03 AUDIO
    INDEX 00 29:57:33
    INDEX 01 29:59:36
  TRACK 04 AUDIO
    INDEX 00 34:41:74
    INDEX 01 34:43:74
  TRACK 05 AUDIO
    INDEX 00 35:38:51
    INDEX 01 35:40:48
  TRACK 06 AUDIO
    INDEX 00 37:09:50
    INDEX 01 37:11:48
  TRACK 07 AUDIO
    INDEX 00 37:28:32
    INDEX 01 37:30:26
